<svg xmlns="http://www.w3.org/2000/svg" width="3840" height="3840"><path d="M1918,1848L1581,2025L1847,2170Z" fill="#6ca9cf" stroke="#6ca9cf" stroke-width="1.51"/><path d="M1918,1848L1551,1682L1581,2025Z" fill="#78aed2" stroke="#78aed2" stroke-width="1.51"/><path d="M1581,2025L1511,2475L1847,2170Z" fill="#6da7ce" stroke="#6da7ce" stroke-width="1.51"/><path d="M1110,2397L1511,2475L1581,2025Z" fill="#77a9cf" stroke="#77a9cf" stroke-width="1.51"/><path d="M1551,1682L1213,1854L1581,2025Z" fill="#83b2d4" stroke="#83b2d4" stroke-width="1.51"/><path d="M1847,2170L2242,2346L1918,1848Z" fill="#5ea3cb" stroke="#5ea3cb" stroke-width="1.51"/><path d="M2068,2802L2242,2346L1847,2170Z" fill="#509cc7" stroke="#509cc7" stroke-width="1.51"/><path d="M2242,2346L2365,1760L1918,1848Z" fill="#5da2cb" stroke="#5da2cb" stroke-width="1.51"/><path d="M1918,1848L2034,1408L1551,1682Z" fill="#7aafd3" stroke="#7aafd3" stroke-width="1.51"/><path d="M2365,1760L2034,1408L1918,1848Z" fill="#6fa9d0" stroke="#6fa9d0" stroke-width="1.51"/><path d="M1551,1682L1089,1367L1213,1854Z" fill="#95b8d7" stroke="#95b8d7" stroke-width="1.51"/><path d="M2365,1760L2270,1434L2034,1408Z" fill="#72a9cf" stroke="#72a9cf" stroke-width="1.51"/><path d="M1213,1854L1110,2397L1581,2025Z" fill="#83afd3" stroke="#83afd3" stroke-width="1.51"/><path d="M1511,2475L1612,2759L1847,2170Z" fill="#64a2cb" stroke="#64a2cb" stroke-width="1.51"/><path d="M1144,2556L1612,2759L1511,2475Z" fill="#6da3ca" stroke="#6da3ca" stroke-width="1.51"/><path d="M1110,2397L1144,2556L1511,2475Z" fill="#79a8cf" stroke="#79a8cf" stroke-width="1.51"/><path d="M1815,1131L1551,1682L2034,1408Z" fill="#88b3d5" stroke="#88b3d5" stroke-width="1.51"/><path d="M1815,1131L1452,1196L1551,1682Z" fill="#94b7d8" stroke="#94b7d8" stroke-width="1.51"/><path d="M2219,990L1815,1131L2034,1408Z" fill="#89b2d5" stroke="#89b2d5" stroke-width="1.51"/><path d="M1612,2759L2068,2802L1847,2170Z" fill="#569dc7" stroke="#569dc7" stroke-width="1.51"/><path d="M2242,2346L2643,1843L2365,1760Z" fill="#549ec8" stroke="#549ec8" stroke-width="1.51"/><path d="M2365,1760L2778,1520L2270,1434Z" fill="#69a4cc" stroke="#69a4cc" stroke-width="1.51"/><path d="M2746,2395L2643,1843L2242,2346Z" fill="#4797c5" stroke="#4797c5" stroke-width="1.51"/><path d="M1452,1196L1089,1367L1551,1682Z" fill="#9cbad8" stroke="#9cbad8" stroke-width="1.51"/><path d="M655,2164L885,2672L1110,2397Z" fill="#89afd3" stroke="#89afd3" stroke-width="1.51"/><path d="M2068,2802L2367,2761L2242,2346Z" fill="#4395c1" stroke="#4395c1" stroke-width="1.51"/><path d="M2697,2615L2746,2395L2242,2346Z" fill="#3b92c1" stroke="#3b92c1" stroke-width="1.51"/><path d="M1612,2759L1991,3024L2068,2802Z" fill="#4c99bb" stroke="#4c99bb" stroke-width="1.51"/><path d="M2068,2802L2433,3059L2367,2761Z" fill="#3b92b6" stroke="#3b92b6" stroke-width="1.51"/><path d="M1490,3145L1991,3024L1612,2759Z" fill="#559bb8" stroke="#559bb8" stroke-width="1.51"/><path d="M655,2164L1110,2397L1213,1854Z" fill="#8cb3d5" stroke="#8cb3d5" stroke-width="1.51"/><path d="M1452,1196L1017,1225L1089,1367Z" fill="#aabedc" stroke="#aabedc" stroke-width="1.51"/><path d="M1419,702L1017,1225L1452,1196Z" fill="#adc0dd" stroke="#adc0dd" stroke-width="1.51"/><path d="M2270,1434L2219,990L2034,1408Z" fill="#81aed2" stroke="#81aed2" stroke-width="1.51"/><path d="M1815,1131L1419,702L1452,1196Z" fill="#a2bcdb" stroke="#a2bcdb" stroke-width="1.51"/><path d="M2779,1025L2219,990L2270,1434Z" fill="#7eabd0" stroke="#7eabd0" stroke-width="1.51"/><path d="M2643,1843L2778,1520L2365,1760Z" fill="#5d9fc8" stroke="#5d9fc8" stroke-width="1.51"/><path d="M3022,1873L2778,1520L2643,1843Z" fill="#569cbe" stroke="#569cbe" stroke-width="1.51"/><path d="M2433,3059L2697,2615L2367,2761Z" fill="#338fb6" stroke="#338fb6" stroke-width="1.51"/><path d="M2367,2761L2697,2615L2242,2346Z" fill="#3c92c1" stroke="#3c92c1" stroke-width="1.51"/><path d="M1223,3200L1490,3145L1612,2759Z" fill="#629eb8" stroke="#629eb8" stroke-width="1.51"/><path d="M1110,2397L885,2672L1144,2556Z" fill="#7faad0" stroke="#7faad0" stroke-width="1.51"/><path d="M655,2164L1213,1854L601,1936Z" fill="#96b8d8" stroke="#96b8d8" stroke-width="1.51"/><path d="M669,1661L1213,1854L1089,1367Z" fill="#a0bcda" stroke="#a0bcda" stroke-width="1.51"/><path d="M643,1195L669,1661L1089,1367Z" fill="#b0c2de" stroke="#b0c2de" stroke-width="1.51"/><path d="M669,1661L601,1936L1213,1854Z" fill="#9dbbda" stroke="#9dbbda" stroke-width="1.51"/><path d="M1223,3200L1612,2759L1144,2556Z" fill="#6ca2c1" stroke="#6ca2c1" stroke-width="1.51"/><path d="M2960,2425L3022,1873L2746,2395Z" fill="#3d92b5" stroke="#3d92b5" stroke-width="1.51"/><path d="M2746,2395L3022,1873L2643,1843Z" fill="#4797bc" stroke="#4797bc" stroke-width="1.51"/><path d="M1991,3024L2433,3059L2068,2802Z" fill="#3e93b4" stroke="#3e93b4" stroke-width="1.51"/><path d="M2403,3467L2433,3059L1991,3024Z" fill="#338fa9" stroke="#338fa9" stroke-width="1.51"/><path d="M2697,2615L2960,2425L2746,2395Z" fill="#348fb7" stroke="#348fb7" stroke-width="1.51"/><path d="M2964,2786L2960,2425L2697,2615Z" fill="#2d8cb1" stroke="#2d8cb1" stroke-width="1.51"/><path d="M2219,990L1797,665L1815,1131Z" fill="#94b8d8" stroke="#94b8d8" stroke-width="1.51"/><path d="M1797,665L1419,702L1815,1131Z" fill="#a3bedc" stroke="#a3bedc" stroke-width="1.51"/><path d="M1017,1225L643,1195L1089,1367Z" fill="#b2c2de" stroke="#b2c2de" stroke-width="1.51"/><path d="M2403,3467L2690,3128L2433,3059Z" fill="#278aa5" stroke="#278aa5" stroke-width="1.51"/><path d="M885,2672L1223,3200L1144,2556Z" fill="#77a6c4" stroke="#77a6c4" stroke-width="1.51"/><path d="M628,875L643,1195L1017,1225Z" fill="#bdc7e1" stroke="#bdc7e1" stroke-width="1.51"/><path d="M84,1672L230,2044L601,1936Z" fill="#a8c1de" stroke="#a8c1de" stroke-width="1.51"/><path d="M2219,990L2386,581L1797,665Z" fill="#95b7d7" stroke="#95b7d7" stroke-width="1.51"/><path d="M2778,1520L2779,1025L2270,1434Z" fill="#72a5cb" stroke="#72a5cb" stroke-width="1.51"/><path d="M3167,1170L2779,1025L2778,1520Z" fill="#6fa3bf" stroke="#6fa3bf" stroke-width="1.51"/><path d="M885,2672L753,2981L1223,3200Z" fill="#78a7c0" stroke="#78a7c0" stroke-width="1.51"/><path d="M475,2818L753,2981L885,2672Z" fill="#84acc7" stroke="#84acc7" stroke-width="1.51"/><path d="M475,2818L885,2672L655,2164Z" fill="#8cb0d3" stroke="#8cb0d3" stroke-width="1.51"/><path d="M3563,1960L3174,1536L3022,1873Z" fill="#4996ab" stroke="#4996ab" stroke-width="1.51"/><path d="M2690,3128L2964,2786L2697,2615Z" fill="#298bab" stroke="#298bab" stroke-width="1.51"/><path d="M2433,3059L2690,3128L2697,2615Z" fill="#2b8caf" stroke="#2b8caf" stroke-width="1.51"/><path d="M1840,3512L1991,3024L1490,3145Z" fill="#4b97ad" stroke="#4b97ad" stroke-width="1.51"/><path d="M3022,1873L3174,1536L2778,1520Z" fill="#589cb8" stroke="#589cb8" stroke-width="1.51"/><path d="M3563,1960L3022,1873L3617,2273Z" fill="#3c8fa3" stroke="#3c8fa3" stroke-width="1.51"/><path d="M2779,1025L2726,807L2219,990Z" fill="#82abd0" stroke="#82abd0" stroke-width="1.51"/><path d="M3074,859L2726,807L2779,1025Z" fill="#7da9c4" stroke="#7da9c4" stroke-width="1.51"/><path d="M1394,3623L1840,3512L1490,3145Z" fill="#5597a6" stroke="#5597a6" stroke-width="1.51"/><path d="M1394,3623L1490,3145L1223,3200Z" fill="#609bac" stroke="#609bac" stroke-width="1.51"/><path d="M2726,807L2386,581L2219,990Z" fill="#8ab0d3" stroke="#8ab0d3" stroke-width="1.51"/><path d="M1797,665L1543,335L1419,702Z" fill="#afc3de" stroke="#afc3de" stroke-width="1.51"/><path d="M230,2044L655,2164L601,1936Z" fill="#9fbcda" stroke="#9fbcda" stroke-width="1.51"/><path d="M231,2395L475,2818L655,2164Z" fill="#94b5d6" stroke="#94b5d6" stroke-width="1.51"/><path d="M268,1460L601,1936L669,1661Z" fill="#acc2de" stroke="#acc2de" stroke-width="1.51"/><path d="M2265,389L1814,417L1797,665Z" fill="#a1bedb" stroke="#a1bedb" stroke-width="1.51"/><path d="M1419,702L1015,585L1017,1225Z" fill="#b9c5e0" stroke="#b9c5e0" stroke-width="1.51"/><path d="M1087,471L1015,585L1419,702Z" fill="#c0c9e2" stroke="#c0c9e2" stroke-width="1.51"/><path d="M643,1195L268,1460L669,1661Z" fill="#b6c6e0" stroke="#b6c6e0" stroke-width="1.51"/><path d="M327,1013L268,1460L643,1195Z" fill="#c1cbe3" stroke="#c1cbe3" stroke-width="1.51"/><path d="M1015,585L628,875L1017,1225Z" fill="#bfc9e1" stroke="#bfc9e1" stroke-width="1.51"/><path d="M230,2044L231,2395L655,2164Z" fill="#9dbbd9" stroke="#9dbbd9" stroke-width="1.51"/><path d="M1840,3512L2403,3467L1991,3024Z" fill="#3b90a5" stroke="#3b90a5" stroke-width="1.51"/><path d="M3174,1536L3167,1170L2778,1520Z" fill="#649fb7" stroke="#649fb7" stroke-width="1.51"/><path d="M863,3452L1223,3200L753,2981Z" fill="#73a4b4" stroke="#73a4b4" stroke-width="1.51"/><path d="M863,3452L1035,3467L1223,3200Z" fill="#6da0ad" stroke="#6da0ad" stroke-width="1.51"/><path d="M1015,585L882,416L628,875Z" fill="#c9cde4" stroke="#c9cde4" stroke-width="1.51"/><path d="M1543,335L1087,471L1419,702Z" fill="#bac7e1" stroke="#bac7e1" stroke-width="1.51"/><path d="M1576,-46L1543,335L1814,417Z" fill="#b4c6e0" stroke="#b4c6e0" stroke-width="1.51"/><path d="M1814,417L1543,335L1797,665Z" fill="#abc2de" stroke="#abc2de" stroke-width="1.51"/><path d="M2386,581L2265,389L1797,665Z" fill="#9bb9d9" stroke="#9bb9d9" stroke-width="1.51"/><path d="M2715,373L2265,389L2386,581Z" fill="#94b5d6" stroke="#94b5d6" stroke-width="1.51"/><path d="M2715,373L2386,581L2726,807Z" fill="#8db0d1" stroke="#8db0d1" stroke-width="1.51"/><path d="M2809,3542L2993,3136L2690,3128Z" fill="#1a8598" stroke="#1a8598" stroke-width="1.51"/><path d="M2690,3128L2993,3136L2964,2786Z" fill="#1f889f" stroke="#1f889f" stroke-width="1.51"/><path d="M3617,2273L3022,1873L2960,2425Z" fill="#3790aa" stroke="#3790aa" stroke-width="1.51"/><path d="M1035,3467L1394,3623L1223,3200Z" fill="#679ca9" stroke="#679ca9" stroke-width="1.51"/><path d="M1840,3512L1882,3759L2403,3467Z" fill="#3b8c9c" stroke="#3b8c9c" stroke-width="1.51"/><path d="M475,2818L408,2996L753,2981Z" fill="#87adc3" stroke="#87adc3" stroke-width="1.51"/><path d="M-19,2764L408,2996L475,2818Z" fill="#8eb1c9" stroke="#8eb1c9" stroke-width="1.51"/><path d="M3167,1170L3074,859L2779,1025Z" fill="#75a5bc" stroke="#75a5bc" stroke-width="1.51"/><path d="M268,1460L84,1672L601,1936Z" fill="#b0c4df" stroke="#b0c4df" stroke-width="1.51"/><path d="M230,2044L69,2436L231,2395Z" fill="#9fbcda" stroke="#9fbcda" stroke-width="1.51"/><path d="M24,1050L84,1672L268,1460Z" fill="#c1cbe4" stroke="#c1cbe4" stroke-width="1.51"/><path d="M1141,3843L1477,3814L1394,3623Z" fill="#5e959b" stroke="#5e959b" stroke-width="1.51"/><path d="M419,3465L863,3452L753,2981Z" fill="#7ba6b3" stroke="#7ba6b3" stroke-width="1.51"/><path d="M628,875L327,1013L643,1195Z" fill="#c5cce3" stroke="#c5cce3" stroke-width="1.51"/><path d="M182,839L327,1013L628,875Z" fill="#cdd0e6" stroke="#cdd0e6" stroke-width="1.51"/><path d="M231,2395L-19,2764L475,2818Z" fill="#94b4d2" stroke="#94b4d2" stroke-width="1.51"/><path d="M-195,1823L69,2436L230,2044Z" fill="#a8c1dd" stroke="#a8c1dd" stroke-width="1.51"/><path d="M1477,3814L1882,3759L1840,3512Z" fill="#4a909a" stroke="#4a909a" stroke-width="1.51"/><path d="M3617,2273L2960,2425L3539,2833Z" fill="#27879f" stroke="#27879f" stroke-width="1.51"/><path d="M3174,1536L3669,1455L3167,1170Z" fill="#609bab" stroke="#609bab" stroke-width="1.51"/><path d="M3167,1170L3657,1058L3074,859Z" fill="#6ea1b0" stroke="#6ea1b0" stroke-width="1.51"/><path d="M1087,471L882,416L1015,585Z" fill="#c7cde4" stroke="#c7cde4" stroke-width="1.51"/><path d="M1273,-106L882,416L1087,471Z" fill="#cacfe5" stroke="#cacfe5" stroke-width="1.51"/><path d="M1394,3623L1477,3814L1840,3512Z" fill="#54939d" stroke="#54939d" stroke-width="1.51"/><path d="M1141,3843L1394,3623L1035,3467Z" fill="#6699a1" stroke="#6699a1" stroke-width="1.51"/><path d="M3539,2833L2960,2425L2964,2786Z" fill="#2288a2" stroke="#2288a2" stroke-width="1.51"/><path d="M3074,859L2715,373L2726,807Z" fill="#85acc7" stroke="#85acc7" stroke-width="1.51"/><path d="M2042,-149L1576,-46L1814,417Z" fill="#b0c6e0" stroke="#b0c6e0" stroke-width="1.51"/><path d="M3507,3010L3539,2833L2964,2786Z" fill="#198393" stroke="#198393" stroke-width="1.51"/><path d="M2403,3467L2809,3542L2690,3128Z" fill="#22859b" stroke="#22859b" stroke-width="1.51"/><path d="M2825,3861L2809,3542L2403,3467Z" fill="#218190" stroke="#218190" stroke-width="1.51"/><path d="M69,2436L-19,2764L231,2395Z" fill="#9ab7d8" stroke="#9ab7d8" stroke-width="1.51"/><path d="M408,2996L419,3465L753,2981Z" fill="#81abba" stroke="#81abba" stroke-width="1.51"/><path d="M-348,2845L-19,2764L69,2436Z" fill="#9ab8d3" stroke="#9ab8d3" stroke-width="1.51"/><path d="M3507,3010L2964,2786L2993,3136Z" fill="#158596" stroke="#158596" stroke-width="1.51"/><path d="M327,1013L24,1050L268,1460Z" fill="#c8cee5" stroke="#c8cee5" stroke-width="1.51"/><path d="M431,242L182,839L628,875Z" fill="#d4d3e8" stroke="#d4d3e8" stroke-width="1.51"/><path d="M761,3818L1141,3843L1035,3467Z" fill="#6c9ba0" stroke="#6c9ba0" stroke-width="1.51"/><path d="M761,3818L1035,3467L863,3452Z" fill="#719fa6" stroke="#719fa6" stroke-width="1.51"/><path d="M3819,1416L3669,1455L3971,2040Z" fill="#4e8f96" stroke="#4e8f96" stroke-width="1.51"/><path d="M3563,1960L3669,1455L3174,1536Z" fill="#5095a4" stroke="#5095a4" stroke-width="1.51"/><path d="M3074,859L3116,279L2715,373Z" fill="#86adc2" stroke="#86adc2" stroke-width="1.51"/><path d="M84,1672L-195,1823L230,2044Z" fill="#afc5e0" stroke="#afc5e0" stroke-width="1.51"/><path d="M-403,1606L-195,1823L84,1672Z" fill="#b9cbe3" stroke="#b9cbe3" stroke-width="1.51"/><path d="M182,839L24,1050L327,1013Z" fill="#cfd1e7" stroke="#cfd1e7" stroke-width="1.51"/><path d="M-60,3125L419,3465L408,2996Z" fill="#86aeba" stroke="#86aeba" stroke-width="1.51"/><path d="M3376,3461L3507,3010L2993,3136Z" fill="#047f87" stroke="#047f87" stroke-width="1.51"/><path d="M882,416L431,242L628,875Z" fill="#d2d2e7" stroke="#d2d2e7" stroke-width="1.51"/><path d="M1543,335L1273,-106L1087,471Z" fill="#c3cbe3" stroke="#c3cbe3" stroke-width="1.51"/><path d="M2042,-149L1814,417L2265,389Z" fill="#a5c0dc" stroke="#a5c0dc" stroke-width="1.51"/><path d="M3993,2586L3805,2371L3539,2833Z" fill="#237f8d" stroke="#237f8d" stroke-width="1.51"/><path d="M3539,2833L3805,2371L3617,2273Z" fill="#288394" stroke="#288394" stroke-width="1.51"/><path d="M3617,2273L3971,2040L3563,1960Z" fill="#398996" stroke="#398996" stroke-width="1.51"/><path d="M419,3465L761,3818L863,3452Z" fill="#78a2a8" stroke="#78a2a8" stroke-width="1.51"/><path d="M3669,1455L3657,1058L3167,1170Z" fill="#669ba7" stroke="#669ba7" stroke-width="1.51"/><path d="M3819,1416L3657,1058L3669,1455Z" fill="#60969d" stroke="#60969d" stroke-width="1.51"/><path d="M1882,3759L2320,4035L2403,3467Z" fill="#348693" stroke="#348693" stroke-width="1.51"/><path d="M2809,3542L3216,3582L2993,3136Z" fill="#12808a" stroke="#12808a" stroke-width="1.51"/><path d="M1902,4290L2320,4035L1882,3759Z" fill="#38838c" stroke="#38838c" stroke-width="1.51"/><path d="M1902,4290L1882,3759L1477,3814Z" fill="#478a91" stroke="#478a91" stroke-width="1.51"/><path d="M1902,4290L1477,3814L1484,4333Z" fill="#4c868c" stroke="#4c868c" stroke-width="1.51"/><path d="M3971,2040L3669,1455L3563,1960Z" fill="#458e98" stroke="#458e98" stroke-width="1.51"/><path d="M2320,4035L2825,3861L2403,3467Z" fill="#27808e" stroke="#27808e" stroke-width="1.51"/><path d="M2825,3861L3216,3582L2809,3542Z" fill="#157c84" stroke="#157c84" stroke-width="1.51"/><path d="M1576,-46L1273,-106L1543,335Z" fill="#c0cbe3" stroke="#c0cbe3" stroke-width="1.51"/><path d="M2260,-163L2042,-149L2265,389Z" fill="#a5bfdc" stroke="#a5bfdc" stroke-width="1.51"/><path d="M1543,-612L1122,-364L1273,-106Z" fill="#cdd4e8" stroke="#cdd4e8" stroke-width="1.51"/><path d="M2260,-163L2265,389L2715,373Z" fill="#9cb9d9" stroke="#9cb9d9" stroke-width="1.51"/><path d="M419,3465L289,3810L761,3818Z" fill="#7ba3a4" stroke="#7ba3a4" stroke-width="1.51"/><path d="M-19,2764L-60,3125L408,2996Z" fill="#8fb3c6" stroke="#8fb3c6" stroke-width="1.51"/><path d="M-348,2845L-60,3125L-19,2764Z" fill="#96b6ca" stroke="#96b6ca" stroke-width="1.51"/><path d="M3512,566L3116,279L3074,859Z" fill="#7fa9b6" stroke="#7fa9b6" stroke-width="1.51"/><path d="M3216,3582L3376,3461L2993,3136Z" fill="#057e83" stroke="#057e83" stroke-width="1.51"/><path d="M3827,3225L3993,2586L3539,2833Z" fill="#197b81" stroke="#197b81" stroke-width="1.51"/><path d="M3805,2371L3971,2040L3617,2273Z" fill="#338592" stroke="#338592" stroke-width="1.51"/><path d="M4206,2428L3971,2040L3805,2371Z" fill="#307f8a" stroke="#307f8a" stroke-width="1.51"/><path d="M182,839L-10,607L24,1050Z" fill="#d6d5e9" stroke="#d6d5e9" stroke-width="1.51"/><path d="M425,33L431,242L882,416Z" fill="#dad6ea" stroke="#dad6ea" stroke-width="1.51"/><path d="M1122,-364L831,-204L1273,-106Z" fill="#d3d6e9" stroke="#d3d6e9" stroke-width="1.51"/><path d="M2374,-331L2260,-163L2838,-179Z" fill="#a1bddb" stroke="#a1bddb" stroke-width="1.51"/><path d="M-195,1823L-494,2283L69,2436Z" fill="#a9c3de" stroke="#a9c3de" stroke-width="1.51"/><path d="M24,1050L-403,1606L84,1672Z" fill="#c3cee5" stroke="#c3cee5" stroke-width="1.51"/><path d="M-471,1224L-403,1606L24,1050Z" fill="#ccd3e8" stroke="#ccd3e8" stroke-width="1.51"/><path d="M3657,1058L3512,566L3074,859Z" fill="#74a2ad" stroke="#74a2ad" stroke-width="1.51"/><path d="M3757,678L3512,566L3657,1058Z" fill="#74a0a4" stroke="#74a0a4" stroke-width="1.51"/><path d="M431,242L-10,607L182,839Z" fill="#dbd7ea" stroke="#dbd7ea" stroke-width="1.51"/><path d="M-553,2071L-494,2283L-195,1823Z" fill="#b0c9e2" stroke="#b0c9e2" stroke-width="1.51"/><path d="M-494,2283L-348,2845L69,2436Z" fill="#a1bddb" stroke="#a1bddb" stroke-width="1.51"/><path d="M3827,3225L3539,2833L3507,3010Z" fill="#127c82" stroke="#127c82" stroke-width="1.51"/><path d="M2320,4035L2589,4177L2825,3861Z" fill="#237986" stroke="#237986" stroke-width="1.51"/><path d="M1279,4246L1477,3814L1141,3843Z" fill="#5e9094" stroke="#5e9094" stroke-width="1.51"/><path d="M828,4184L1279,4246L1141,3843Z" fill="#649092" stroke="#649092" stroke-width="1.51"/><path d="M-600,3251L-60,3125L-348,2845Z" fill="#94b7c4" stroke="#94b7c4" stroke-width="1.51"/><path d="M-403,1606L-553,2071L-195,1823Z" fill="#b7cde4" stroke="#b7cde4" stroke-width="1.51"/><path d="M2347,4401L2589,4177L2320,4035Z" fill="#287682" stroke="#287682" stroke-width="1.51"/><path d="M3266,4031L3396,3891L3216,3582Z" fill="#04756f" stroke="#04756f" stroke-width="1.51"/><path d="M3962,3500L3827,3225L3376,3461Z" fill="#04756f" stroke="#04756f" stroke-width="1.51"/><path d="M-129,3540L289,3810L419,3465Z" fill="#83a8aa" stroke="#83a8aa" stroke-width="1.51"/><path d="M761,3818L828,4184L1141,3843Z" fill="#6c9798" stroke="#6c9798" stroke-width="1.51"/><path d="M-129,3540L419,3465L-60,3125Z" fill="#88adb4" stroke="#88adb4" stroke-width="1.51"/><path d="M3819,1416L3947,1060L3657,1058Z" fill="#64979b" stroke="#64979b" stroke-width="1.51"/><path d="M4269,1461L3947,1060L3819,1416Z" fill="#5d8f92" stroke="#5d8f92" stroke-width="1.51"/><path d="M4269,1461L3819,1416L3971,2040Z" fill="#4c898f" stroke="#4c898f" stroke-width="1.51"/><path d="M1279,4246L1484,4333L1477,3814Z" fill="#568a8e" stroke="#568a8e" stroke-width="1.51"/><path d="M-403,1606L-471,1224L-553,2071Z" fill="#c1d1e6" stroke="#c1d1e6" stroke-width="1.51"/><path d="M-446,840L-471,1224L24,1050Z" fill="#d5d7ea" stroke="#d5d7ea" stroke-width="1.51"/><path d="M831,-204L425,33L882,416Z" fill="#dad6ea" stroke="#dad6ea" stroke-width="1.51"/><path d="M431,242L-215,330L-10,607Z" fill="#e1dbec" stroke="#e1dbec" stroke-width="1.51"/><path d="M3947,1060L3757,678L3657,1058Z" fill="#6d9b9d" stroke="#6d9b9d" stroke-width="1.51"/><path d="M3132,-103L2838,-179L3116,279Z" fill="#90b3c4" stroke="#90b3c4" stroke-width="1.51"/><path d="M1273,-106L831,-204L882,416Z" fill="#d1d3e8" stroke="#d1d3e8" stroke-width="1.51"/><path d="M1928,-411L1576,-46L2042,-149Z" fill="#b3c9e2" stroke="#b3c9e2" stroke-width="1.51"/><path d="M2260,-163L1928,-411L2042,-149Z" fill="#adc6e0" stroke="#adc6e0" stroke-width="1.51"/><path d="M2838,-179L2260,-163L2715,373Z" fill="#9bb7d6" stroke="#9bb7d6" stroke-width="1.51"/><path d="M2838,-179L2715,373L3116,279Z" fill="#90b3c8" stroke="#90b3c8" stroke-width="1.51"/><path d="M1279,4246L828,4184L1484,4333Z" fill="#5e888c" stroke="#5e888c" stroke-width="1.51"/><path d="M340,4285L828,4184L761,3818Z" fill="#729795" stroke="#729795" stroke-width="1.51"/><path d="M3396,3891L3376,3461L3216,3582Z" fill="#057875" stroke="#057875" stroke-width="1.51"/><path d="M3376,3461L3827,3225L3507,3010Z" fill="#057a7c" stroke="#057a7c" stroke-width="1.51"/><path d="M2374,-331L1928,-411L2260,-163Z" fill="#aac4df" stroke="#aac4df" stroke-width="1.51"/><path d="M3505,204L3116,279L3512,566Z" fill="#82aab2" stroke="#82aab2" stroke-width="1.51"/><path d="M1543,-612L1273,-106L1576,-46Z" fill="#c5d0e6" stroke="#c5d0e6" stroke-width="1.51"/><path d="M289,3810L340,4285L761,3818Z" fill="#789c9b" stroke="#789c9b" stroke-width="1.51"/><path d="M-479,3411L-129,3540L-60,3125Z" fill="#8db2b7" stroke="#8db2b7" stroke-width="1.51"/><path d="M4369,2710L4206,2428L3993,2586Z" fill="#227481" stroke="#227481" stroke-width="1.51"/><path d="M3993,2586L4206,2428L3805,2371Z" fill="#287b88" stroke="#287b88" stroke-width="1.51"/><path d="M1902,4290L2347,4401L2320,4035Z" fill="#317984" stroke="#317984" stroke-width="1.51"/><path d="M3266,4031L3216,3582L2825,3861Z" fill="#0d7877" stroke="#0d7877" stroke-width="1.51"/><path d="M1484,4333L2347,4401L1902,4290Z" fill="#3a7b84" stroke="#3a7b84" stroke-width="1.51"/><path d="M3940,362L3505,204L3512,566Z" fill="#7ea5a7" stroke="#7ea5a7" stroke-width="1.51"/><path d="M3505,204L3132,-103L3116,279Z" fill="#89afb9" stroke="#89afb9" stroke-width="1.51"/><path d="M2838,-179L2778,-480L2374,-331Z" fill="#9ebcd6" stroke="#9ebcd6" stroke-width="1.51"/><path d="M-525,481L-446,840L-10,607Z" fill="#e2deed" stroke="#e2deed" stroke-width="1.51"/><path d="M-10,607L-446,840L24,1050Z" fill="#dad8eb" stroke="#dad8eb" stroke-width="1.51"/><path d="M-471,1224L-525,481L-553,2071Z" fill="#d1d7ea" stroke="#d1d7ea" stroke-width="1.51"/><path d="M3266,4031L2825,3861L2991,4277Z" fill="#117273" stroke="#117273" stroke-width="1.51"/><path d="M2991,4277L2825,3861L2589,4177Z" fill="#1b747a" stroke="#1b747a" stroke-width="1.51"/><path d="M3757,678L3940,362L3512,566Z" fill="#7aa1a2" stroke="#7aa1a2" stroke-width="1.51"/><path d="M3947,1060L4202,837L3757,678Z" fill="#6d9797" stroke="#6d9797" stroke-width="1.51"/><path d="M4364,2051L4269,1461L3971,2040Z" fill="#3f8188" stroke="#3f8188" stroke-width="1.51"/><path d="M79,-77L-215,330L431,242Z" fill="#e6deee" stroke="#e6deee" stroke-width="1.51"/><path d="M79,-77L431,242L425,33Z" fill="#e3dced" stroke="#e3dced" stroke-width="1.51"/><path d="M79,-77L425,33L227,-608Z" fill="#e9e1ef" stroke="#e9e1ef" stroke-width="1.51"/><path d="M4206,2428L4364,2051L3971,2040Z" fill="#327b85" stroke="#327b85" stroke-width="1.51"/><path d="M2347,4401L2991,4277L2589,4177Z" fill="#1f707c" stroke="#1f707c" stroke-width="1.51"/><path d="M605,-495L425,33L831,-204Z" fill="#e1dded" stroke="#e1dded" stroke-width="1.51"/><path d="M1928,-411L1543,-612L1576,-46Z" fill="#bdcee5" stroke="#bdcee5" stroke-width="1.51"/><path d="M2778,-480L1543,-612L1928,-411Z" fill="#b0cae2" stroke="#b0cae2" stroke-width="1.51"/><path d="M2778,-480L1928,-411L2374,-331Z" fill="#a7c3de" stroke="#a7c3de" stroke-width="1.51"/><path d="M-129,3540L18,3942L289,3810Z" fill="#84a7a5" stroke="#84a7a5" stroke-width="1.51"/><path d="M4206,2428L4369,2710L4364,2051Z" fill="#29737f" stroke="#29737f" stroke-width="1.51"/><path d="M4215,3245L4369,2710L3993,2586Z" fill="#187176" stroke="#187176" stroke-width="1.51"/><path d="M3852,3931L3962,3500L3376,3461Z" fill="#047166" stroke="#047166" stroke-width="1.51"/><path d="M3852,3931L3376,3461L3396,3891Z" fill="#047268" stroke="#047268" stroke-width="1.51"/><path d="M3521,4231L3396,3891L3266,4031Z" fill="#046d65" stroke="#046d65" stroke-width="1.51"/><path d="M3121,-549L2778,-480L2838,-179Z" fill="#99bacc" stroke="#99bacc" stroke-width="1.51"/><path d="M3121,-549L2838,-179L3132,-103Z" fill="#95b7c6" stroke="#95b7c6" stroke-width="1.51"/><path d="M-129,3540L-608,4001L18,3942Z" fill="#87aaa4" stroke="#87aaa4" stroke-width="1.51"/><path d="M-600,3251L-479,3411L-60,3125Z" fill="#91b6bc" stroke="#91b6bc" stroke-width="1.51"/><path d="M-600,3251L-348,2845L-494,2283Z" fill="#9ebdd2" stroke="#9ebdd2" stroke-width="1.51"/><path d="M605,-495L831,-204L1122,-364Z" fill="#dcdbec" stroke="#dcdbec" stroke-width="1.51"/><path d="M4307,1013L4202,837L3947,1060Z" fill="#678f91" stroke="#678f91" stroke-width="1.51"/><path d="M3505,204L3613,-17L3132,-103Z" fill="#89adb3" stroke="#89adb3" stroke-width="1.51"/><path d="M4307,1013L3947,1060L4269,1461Z" fill="#5f8c8f" stroke="#5f8c8f" stroke-width="1.51"/><path d="M-553,2071L-600,3251L-494,2283Z" fill="#a5c1dd" stroke="#a5c1dd" stroke-width="1.51"/><path d="M4215,3245L3993,2586L3827,3225Z" fill="#127474" stroke="#127474" stroke-width="1.51"/><path d="M4202,837L3940,362L3757,678Z" fill="#759b99" stroke="#759b99" stroke-width="1.51"/><path d="M1484,4333L-351,4430L2347,4401Z" fill="#5d8588" stroke="#5d8588" stroke-width="1.51"/><path d="M828,4184L340,4285L1484,4333Z" fill="#688d8e" stroke="#688d8e" stroke-width="1.51"/><path d="M18,3942L340,4285L289,3810Z" fill="#7d9f9a" stroke="#7d9f9a" stroke-width="1.51"/><path d="M4228,200L4055,57L3940,362Z" fill="#7c9c99" stroke="#7c9c99" stroke-width="1.51"/><path d="M4364,2051L4307,1013L4269,1461Z" fill="#508288" stroke="#508288" stroke-width="1.51"/><path d="M3940,362L3613,-17L3505,204Z" fill="#82a7a7" stroke="#82a7a7" stroke-width="1.51"/><path d="M1543,-612L605,-495L1122,-364Z" fill="#d6daeb" stroke="#d6daeb" stroke-width="1.51"/><path d="M3962,3500L4215,3245L3827,3225Z" fill="#047069" stroke="#047069" stroke-width="1.51"/><path d="M-447,-94L-525,481L-215,330Z" fill="#ece4f1" stroke="#ece4f1" stroke-width="1.51"/><path d="M-215,330L-525,481L-10,607Z" fill="#e5dfee" stroke="#e5dfee" stroke-width="1.51"/><path d="M-446,840L-525,481L-471,1224Z" fill="#dedded" stroke="#dedded" stroke-width="1.51"/><path d="M-553,2071L-525,481L-600,3251Z" fill="#b5cde4" stroke="#b5cde4" stroke-width="1.51"/><path d="M18,3942L-3,4175L340,4285Z" fill="#7d9b98" stroke="#7d9b98" stroke-width="1.51"/><path d="M-608,4001L-3,4175L18,3942Z" fill="#83a39d" stroke="#83a39d" stroke-width="1.51"/><path d="M-608,4001L-129,3540L-479,3411Z" fill="#8cb0ad" stroke="#8cb0ad" stroke-width="1.51"/><path d="M2991,4277L3521,4231L3266,4031Z" fill="#056c66" stroke="#056c66" stroke-width="1.51"/><path d="M3962,3500L4276,3574L4215,3245Z" fill="#046a61" stroke="#046a61" stroke-width="1.51"/><path d="M4039,4433L3521,4231L2991,4277Z" fill="#046459" stroke="#046459" stroke-width="1.51"/><path d="M3521,4231L3852,3931L3396,3891Z" fill="#036b5e" stroke="#036b5e" stroke-width="1.51"/><path d="M3613,-17L3447,-340L3132,-103Z" fill="#8cb0b5" stroke="#8cb0b5" stroke-width="1.51"/><path d="M3761,-405L3447,-340L3613,-17Z" fill="#8baead" stroke="#8baead" stroke-width="1.51"/><path d="M3447,-340L3121,-549L3132,-103Z" fill="#90b5bd" stroke="#90b5bd" stroke-width="1.51"/><path d="M2778,-480L3121,-549L1543,-612Z" fill="#a6c2de" stroke="#a6c2de" stroke-width="1.51"/><path d="M4159,4052L4276,3574L3852,3931Z" fill="#016553" stroke="#016553" stroke-width="1.51"/><path d="M3852,3931L4276,3574L3962,3500Z" fill="#036a5b" stroke="#036a5b" stroke-width="1.51"/><path d="M4215,3245L4276,3574L4369,2710Z" fill="#076a66" stroke="#076a66" stroke-width="1.51"/><path d="M3940,362L4055,57L3613,-17Z" fill="#80a4a0" stroke="#80a4a0" stroke-width="1.51"/><path d="M4228,200L3940,362L4202,837Z" fill="#769795" stroke="#769795" stroke-width="1.51"/><path d="M79,-77L-447,-94L-215,330Z" fill="#ede4f1" stroke="#ede4f1" stroke-width="1.51"/><path d="M227,-608L67,-494L79,-77Z" fill="#eee6f2" stroke="#eee6f2" stroke-width="1.51"/><path d="M227,-608L425,33L605,-495Z" fill="#e7e1ef" stroke="#e7e1ef" stroke-width="1.51"/><path d="M1543,-612L227,-608L605,-495Z" fill="#e1e0ee" stroke="#e1e0ee" stroke-width="1.51"/><path d="M4307,1013L4228,200L4202,837Z" fill="#6e9190" stroke="#6e9190" stroke-width="1.51"/><path d="M-318,-347L-447,-94L79,-77Z" fill="#f2e8f3" stroke="#f2e8f3" stroke-width="1.51"/><path d="M3447,-340L3761,-405L3121,-549Z" fill="#8fb3b5" stroke="#8fb3b5" stroke-width="1.51"/><path d="M4055,57L3761,-405L3613,-17Z" fill="#86a9a4" stroke="#86a9a4" stroke-width="1.51"/><path d="M4255,-408L3761,-405L4055,57Z" fill="#85a59e" stroke="#85a59e" stroke-width="1.51"/><path d="M-600,3251L-608,4001L-479,3411Z" fill="#90b4b2" stroke="#90b4b2" stroke-width="1.51"/><path d="M-3,4175L-351,4430L340,4285Z" fill="#7d9894" stroke="#7d9894" stroke-width="1.51"/><path d="M67,-494L-318,-347L79,-77Z" fill="#f0e7f3" stroke="#f0e7f3" stroke-width="1.51"/><path d="M227,-608L-318,-347L67,-494Z" fill="#f3e9f4" stroke="#f3e9f4" stroke-width="1.51"/><path d="M4039,4433L4159,4052L3852,3931Z" fill="#015e4d" stroke="#015e4d" stroke-width="1.51"/><path d="M4228,200L4309,66L4055,57Z" fill="#7c9a96" stroke="#7c9a96" stroke-width="1.51"/><path d="M4307,1013L4309,66L4228,200Z" fill="#749391" stroke="#749391" stroke-width="1.51"/><path d="M4364,2051L4309,66L4307,1013Z" fill="#62898b" stroke="#62898b" stroke-width="1.51"/><path d="M-608,4001L-351,4430L-3,4175Z" fill="#839f99" stroke="#839f99" stroke-width="1.51"/><path d="M340,4285L-351,4430L1484,4333Z" fill="#72908e" stroke="#72908e" stroke-width="1.51"/><path d="M3521,4231L4039,4433L3852,3931Z" fill="#026351" stroke="#026351" stroke-width="1.51"/><path d="M2347,4401L4039,4433L2991,4277Z" fill="#0a6866" stroke="#0a6866" stroke-width="1.51"/><path d="M-351,4430L4039,4433L2347,4401Z" fill="#367780" stroke="#367780" stroke-width="1.51"/><path d="M4039,4433L4164,4405L4159,4052Z" fill="#015745" stroke="#015745" stroke-width="1.51"/><path d="M4159,4052L4164,4405L4276,3574Z" fill="#015d4b" stroke="#015d4b" stroke-width="1.51"/><path d="M3761,-405L4255,-408L3121,-549Z" fill="#8cb0aa" stroke="#8cb0aa" stroke-width="1.51"/><path d="M4309,66L4255,-408L4055,57Z" fill="#7f9c97" stroke="#7f9c97" stroke-width="1.51"/></svg>