<?xml version="1.0" standalone="no"?><!DOCTYPE svg PUBLIC "-//W3C//DTD SVG 1.1//EN" "http://www.w3.org/Graphics/SVG/1.1/DTD/svg11.dtd"><svg t="1532018365339" class="icon" style="" viewBox="0 0 1024 1024" version="1.1" xmlns="http://www.w3.org/2000/svg" p-id="1998" xmlns:xlink="http://www.w3.org/1999/xlink" width="200" height="200"><defs><style type="text/css"></style></defs><path d="M384 128h85.333333v85.333333H384V128m170.666667 0h85.333333v85.333333h-85.333333V128M384 298.666667h85.333333v85.333333H384V298.666667m170.666667 0h85.333333v85.333333h-85.333333V298.666667m-170.666667 170.666666h85.333333v85.333334H384v-85.333334m170.666667 0h85.333333v85.333334h-85.333333v-85.333334m-170.666667 170.666667h85.333333v85.333333H384v-85.333333m170.666667 0h85.333333v85.333333h-85.333333v-85.333333m-170.666667 170.666667h85.333333v85.333333H384v-85.333333m170.666667 0h85.333333v85.333333h-85.333333v-85.333333z" fill="" p-id="1999"></path></svg>